<svg xmlns="http://www.w3.org/2000/svg" width="512" height="512" viewBox="0 0 512 512">
  <rect width="512" height="512" rx="96" fill="#3b82f6"/>
  <g transform="translate(96, 96) scale(1.25)">
    <path d="M256 112v224" stroke="#ffffff" stroke-width="32" stroke-linecap="round"/>
    <path d="M48 288a16 16 0 0 1-16-16V64a16 16 0 0 1 16-16h80a64 64 0 0 1 64 64 64 64 0 0 1 64-64h80a16 16 0 0 1 16 16v208a16 16 0 0 1-16 16h-96a48 48 0 0 0-48 48 48 48 0 0 0-48-48z" stroke="#ffffff" stroke-width="32" fill="none" stroke-linecap="round" stroke-linejoin="round"/>
  </g>
</svg>
